<?xml version="1.0" encoding="UTF-8" standalone="no"?>
<svg
   xmlns:dc="http://purl.org/dc/elements/1.1/"
   xmlns:cc="http://creativecommons.org/ns#"
   xmlns:rdf="http://www.w3.org/1999/02/22-rdf-syntax-ns#"
   xmlns:svg="http://www.w3.org/2000/svg"
   xmlns="http://www.w3.org/2000/svg"
   xmlns:sodipodi="http://sodipodi.sourceforge.net/DTD/sodipodi-0.dtd"
   xmlns:inkscape="http://www.inkscape.org/namespaces/inkscape"
   viewBox="0 0 800 450"
   height="450"
   width="800"
   version="1.1"
   id="svg2"
   inkscape:version="0.91 r13725"
   sodipodi:docname="dove.svg"
   inkscape:export-filename="C:\Users\dt\Documents\GitHub\xhiggy.github.io\tmp3\dove.png"
   inkscape:export-xdpi="22.5"
   inkscape:export-ydpi="22.5">
  <sodipodi:namedview
     pagecolor="#3ce7a1"
     bordercolor="#666666"
     borderopacity="1"
     objecttolerance="10"
     gridtolerance="10"
     guidetolerance="10"
     inkscape:pageopacity="0"
     inkscape:pageshadow="2"
     inkscape:window-width="1600"
     inkscape:window-height="838"
     id="namedview9"
     showgrid="false"
     inkscape:zoom="1.76"
     inkscape:cx="275.61229"
     inkscape:cy="119.63497"
     inkscape:window-x="-4"
     inkscape:window-y="36"
     inkscape:window-maximized="1"
     inkscape:current-layer="svg2" />
  <metadata
     id="metadata8">
    <rdf:RDF>
      <cc:Work
         rdf:about="">
        <dc:format>image/svg+xml</dc:format>
        <dc:type
           rdf:resource="http://purl.org/dc/dcmitype/StillImage" />
        <dc:title></dc:title>
      </cc:Work>
    </rdf:RDF>
  </metadata>
  <defs
     id="defs6" />
  <path
     id="path4166"
     d="m 452.30803,373.16964 c -1.13897,-3.58854 -2.13865,-14.07115 -2.22152,-23.29463 -0.11554,-12.87119 -1.14469,-16.38865 -4.42605,-15.12946 -6.95807,2.67003 -5.05917,-9.49118 3.43683,-22.01076 4.2417,-6.2505 6.95089,-11.36454 6.02044,-11.36454 -0.93048,0 -7.56252,3.40229 -14.73786,7.56065 -7.17537,4.15837 -21.32866,9.93761 -31.45179,12.8428 -37.81463,10.85225 -102.51553,0.44785 -107.13802,-17.22861 -0.90575,-3.46355 0.23626,-6.29737 -1.28084,-6.29737 -1.51708,0 -1.50858,-1.40513 -1.50858,-3.12252 0,-1.71739 0.19931,-3.41309 5.77415,-3.13994 50.06496,2.4532 48.83414,-15.07134 53.74218,-37.10904 4.19564,-18.83893 6.46403,-18.06621 -6.66427,-21.17098 -14.84593,-3.511 -16.77706,-9.70762 -4.4727,-14.35203 l 9.66102,-3.64662 -17.89442,-6.34788 c -19.71845,-6.99493 -25.11419,-15.41587 -12.79728,-19.97221 l 7.20622,-2.66575 -7.75503,-2.35272 c -20.51123,-6.22268 -59.38628,-24.74361 -58.3653,-27.80648 0.63277,-1.8983 6.29644,-4.89523 12.58597,-6.65991 l 11.43549,-3.20848 -15.45067,-5.4876 c -18.03915,-6.40692 -37.5848,-23.52142 -37.5848,-32.90984 0,-12.534794 22.59925,-17.778094 56.12936,-13.022664 29.25309,4.14883 58.83324,16.707204 92.22083,39.152774 14.67367,9.86471 27.12656,17.38823 27.67307,16.71899 0.5465,-0.66928 6.71657,-9.7523 13.71124,-20.1845 15.1505,-22.59614 31.44064,-37.537214 49.76346,-45.642264 16.12749,-7.13397 42.98554,-10.86858 45.76937,-6.36426 1.07924,1.74623 -0.21912,9.29641 -2.88529,16.77818 -5.79295,16.256224 -11.18817,87.921404 -10.9952,146.049524 0.15587,46.94231 -4.87001,77.43116 -16.77503,101.76415 -12.99586,26.56257 -36.3133,43.52403 -40.72498,29.62399 z"
     style="fill:#eeefef;fill-opacity:1"
     inkscape:export-filename="C:\Users\dt\Documents\GitHub\xhiggy.github.io\tmp3\dove2.png"
     inkscape:export-xdpi="379.61432"
     inkscape:export-ydpi="379.61432"
     inkscape:connector-curvature="0"
     sodipodi:nodetypes="sssssssssssssscsscssscssssssssssss" />
  <g
     style="fill:#e74c3c;fill-opacity:1"
     transform="matrix(3.1225216,0,0,3.1225216,208.50069,20.951974)"
     id="g4224"
     inkscape:export-filename="C:\Users\dt\Documents\GitHub\xhiggy.github.io\tmp3\dove2.png"
     inkscape:export-xdpi="379.61432"
     inkscape:export-ydpi="379.61432">
    <path
       id="path4228"
       d="M 42.343746,97.958584 C 35.932153,96.690096 30.350165,93.408288 28.584645,89.869221 27.71309,88.122148 27,86.536861 27,86.346362 27,86.155863 29.294492,86 32.098871,86 c 6.636389,0 12.686231,-2.139537 14.3993,-6.444429 l 1.401503,-3.521934 1.759673,2.75016 c 1.670574,2.610907 2.587753,2.54298 4.319621,1.46141 3.321917,-2.074571 5.980321,-1.48018 7.817542,1.74792 C 64.093126,86.028409 65.5,85.234998 65.5,79.904532 65.5,75.537448 65.529757,75.5 69,75.5 c 3.465994,0 3.502961,0.04615 3.804791,4.75 0.167635,2.6125 0.552675,4.75 0.855644,4.75 0.302969,0 1.88784,-1.125 3.521934,-2.5 3.252024,-2.736397 7.299302,-3.293127 8.133655,-1.118838 0.971986,2.532955 -4.003964,8.173861 -10.055568,11.399332 -10.532352,5.613686 -21.775403,7.382316 -32.91671,5.17809 z M 81.380002,77.547887 C 80.676287,75.714034 81.700488,74 83.5,74 c 1.838916,0 2.647066,1.453177 1.896256,3.409758 -0.763279,1.989073 -3.272859,2.075384 -4.016254,0.138129 z M 74,72.573324 C 74,70.63784 74.512971,70 76.069551,70 c 1.571851,0 1.992703,0.538639 1.75,2.239784 C 77.34535,75.563532 74,75.855663 74,72.573324 Z"
       style="fill:#e74c3c;fill-opacity:1"
       inkscape:connector-curvature="0"
       sodipodi:nodetypes="ssssscsssssssssssssssssss"
       inkscape:export-filename="C:\Users\dt\Documents\GitHub\xhiggy.github.io\tmp3\dove2.png"
       inkscape:export-xdpi="379.61432"
       inkscape:export-ydpi="379.61432" />
    <path
       id="path4226"
       d="M 39.223583,96.5839 C 33.701601,94.790983 30,92.340145 30,90.476947 30,89.664626 29.55,89 29,89 c -0.55,0 -1,-0.391875 -1,-0.870834 0,-0.478958 2.690792,-1.175262 5.979537,-1.547341 6.352877,-0.718746 9.955907,-0.575269 12.326232,-3.975844 1.344245,-1.928515 1.298605,-5.144883 3.24961,-3.553955 2.257622,1.840956 2.678767,2.093628 5.406376,0.963815 3.489553,-1.44542 5.584577,-0.339277 7.148573,3.774344 1.470624,3.868033 3.396876,2.033459 3.325109,-3.166852 -0.05749,-4.165739 0.206076,-4.746238 2.405591,-5.298282 3.335524,-0.837163 5.476088,2.063318 4.684081,6.346968 -0.817093,4.419333 0.611948,4.795212 4.993271,1.313375 4.168442,-3.312661 6.253149,-3.744354 7.12391,-1.475189 1.089965,2.840404 -4.396773,8.259202 -12.335454,12.182711 -7.236268,3.576358 -8.252965,3.801245 -18.235191,4.033506 C 47.140362,97.887696 42.027409,97.494266 39.223583,96.5839 Z M 82.63948,78.306147 C 81.444324,77.110991 81.99377,75 83.5,75 c 0.825,0 1.5,0.648442 1.5,1.440983 0,1.670644 -1.427277,2.798406 -2.36052,1.865164 z m -8.235518,-4.695823 c -0.90952,-2.37017 1.163336,-4.443026 2.803181,-2.803181 0.942857,0.942857 0.841434,1.572851 -0.463256,2.877541 -1.560531,1.560532 -1.714435,1.555641 -2.339925,-0.07436 z"
       style="fill:#e74c3c;fill-opacity:1"
       inkscape:export-filename="C:\Users\dt\Documents\GitHub\xhiggy.github.io\tmp3\dove2.png"
       inkscape:export-xdpi="379.61432"
       inkscape:export-ydpi="379.61432"
       inkscape:connector-curvature="0"
       sodipodi:nodetypes="sssssssssssssssssssssssss" />
  </g>
</svg>
