<?xml version="1.0" encoding="UTF-8" standalone="no"?>
<!-- Created with Inkscape (http://www.inkscape.org/) -->

<svg
   xmlns:dc="http://purl.org/dc/elements/1.1/"
   xmlns:cc="http://creativecommons.org/ns#"
   xmlns:rdf="http://www.w3.org/1999/02/22-rdf-syntax-ns#"
   xmlns:svg="http://www.w3.org/2000/svg"
   xmlns="http://www.w3.org/2000/svg"
   xmlns:sodipodi="http://sodipodi.sourceforge.net/DTD/sodipodi-0.dtd"
   xmlns:inkscape="http://www.inkscape.org/namespaces/inkscape"
   id="svg4136"
   version="1.1"
   inkscape:version="0.91 r13725"
   width="1020"
   height="1080"
   viewBox="0 0 1020 1080"
   sodipodi:docname="header.svg">
  <metadata
     id="metadata4142">
    <rdf:RDF>
      <cc:Work
         rdf:about="">
        <dc:format>image/svg+xml</dc:format>
        <dc:type
           rdf:resource="http://purl.org/dc/dcmitype/StillImage" />
        <dc:title />
      </cc:Work>
    </rdf:RDF>
  </metadata>
  <defs
     id="defs4140" />
  <sodipodi:namedview
     pagecolor="#e04c35"
     bordercolor="#666666"
     borderopacity="1"
     objecttolerance="10"
     gridtolerance="10"
     guidetolerance="10"
     inkscape:pageopacity="0"
     inkscape:pageshadow="2"
     inkscape:window-width="1600"
     inkscape:window-height="838"
     id="namedview4138"
     showgrid="false"
     inkscape:zoom="0.69044441"
     inkscape:cx="189.0089"
     inkscape:cy="874.82738"
     inkscape:window-x="-4"
     inkscape:window-y="36"
     inkscape:window-maximized="1"
     inkscape:current-layer="svg4136" />
  <path
     style="fill:#fefefe"
     d="m 321.48067,901.21904 c -4.39093,-2.85668 -7.38511,-5.05919 -7.56418,-5.56426 -0.1631,-0.45982 -0.76726,-5.69481 -1.34268,-11.63335 -1.55585,-16.05827 -4.88551,-45.62877 -6.04804,-53.71221 -0.56105,-3.90159 -1.4775,-9.13958 -2.03642,-11.64002 -0.55891,-2.50042 -1.81557,-8.72309 -2.79252,-13.82814 -1.79425,-9.3762 -3.87849,-19.2245 -5.61252,-26.51974 -1.95638,-8.2304 -4.29198,-17.66352 -4.69001,-18.94268 -0.22699,-0.72929 -0.6676,-2.43414 -0.97909,-3.78853 -0.31149,-1.3544 -1.01352,-4.08215 -1.56013,-6.06165 -0.5466,-1.97951 -1.83627,-6.92355 -2.86604,-10.98676 -1.02976,-4.0632 -2.04917,-7.98433 -2.26538,-8.71364 -1.29388,-4.36392 -3.49089,-13.9396 -3.91963,-17.08329 l -0.18549,-1.36087 5.58807,-2.36652 c 8.09445,-3.42801 28.34156,-10.93462 30.27616,-11.22486 l 1.6523,-0.24792 0.27928,1.46116 c 0.15365,0.80363 0.44952,1.97262 0.65751,2.59773 0.20798,0.6251 1.01735,3.43809 1.79853,6.25108 0.78119,2.81299 1.68933,6.05218 2.01814,7.19821 0.32879,1.14604 1.42343,5.3229 2.43248,9.28191 1.00897,3.95903 1.92649,7.5392 2.03874,7.95592 2.97027,11.02343 8.7988,37.57769 10.39471,47.35669 4.09916,25.1178 4.78629,32.16891 4.98428,51.14522 0.1209,11.58299 0.299,15.73446 0.75592,17.61669 0.46006,1.8949 0.54135,3.85984 0.35264,8.52421 l -0.24512,6.06165 0.99176,-1.32599 c 4.84706,-6.48052 21.11385,-31.58031 28.35859,-43.75758 23.63861,-39.7329 32.93039,-69.48794 27.80209,-89.03056 -1.49927,-5.7133 -4.85587,-12.1773 -8.47963,-16.32973 -0.74612,-0.85492 -1.35652,-1.65123 -1.35652,-1.76954 0,-0.11831 -0.68133,-0.88747 -1.51408,-1.70924 -5.74699,-5.67106 -8.24587,-8.03882 -8.49499,-8.04927 -0.15784,-0.007 -0.91314,-0.60245 -1.67862,-1.32413 -0.76548,-0.72164 -1.71939,-1.40965 -2.11976,-1.5289 -0.40044,-0.11923 -0.72799,-0.35594 -0.72799,-0.52597 0,-0.16999 -0.31801,-0.41556 -0.70658,-0.54562 -0.38868,-0.13011 -1.6151,-0.74142 -2.72544,-1.35853 -1.11033,-0.61712 -2.29133,-1.22797 -2.62449,-1.35744 -0.3331,-0.12948 -0.96901,-0.37348 -1.41318,-0.54218 -0.44407,-0.1687 -1.62508,-0.64185 -2.62442,-1.05147 -0.99934,-0.40957 -2.99792,-1.1197 -4.44143,-1.57803 -1.44341,-0.4583 -2.98784,-0.97539 -3.43192,-1.14906 -0.44417,-0.17368 -1.44351,-0.52066 -2.22075,-0.77108 -0.77726,-0.25042 -1.77651,-0.59404 -2.22068,-0.76362 -0.44416,-0.16954 -1.62517,-0.5036 -2.62442,-0.74236 -0.99933,-0.23876 -2.45292,-0.58552 -3.23017,-0.77056 -8.54816,-2.03508 -24.08108,-3.34633 -31.02878,-2.61935 -5.87798,0.61504 -14.81732,2.80832 -23.47916,5.76077 -10.45164,3.56244 -27.26137,11.04366 -36.25407,16.13492 -2.95143,1.67097 -5.71915,3.14324 -6.15056,3.2717 -0.68669,0.20446 -8.28951,-0.64603 -10.79114,-1.20718 -1.41568,-0.31755 -1.11972,-1.40626 1.34767,-4.95798 6.55404,-9.43451 17.95148,-20.26407 27.93977,-26.54767 7.9715,-5.01484 22.40843,-12.10671 31.57975,-15.513 11.48748,-4.26645 31.04843,-9.98645 37.95375,-11.09846 6.1585,-0.99173 15.79175,-1.59 20.7938,-1.2914 6.16555,0.36806 18.38003,2.40492 21.39945,3.56854 0.44418,0.17116 1.89767,0.59738 3.23009,0.94713 1.33243,0.34977 2.78602,0.78003 3.23009,0.95616 0.44418,0.17612 1.44351,0.52512 2.22076,0.77554 0.77717,0.25043 1.77651,0.5914 2.22067,0.75771 0.44409,0.16631 1.44342,0.50728 2.22067,0.7577 4.76309,1.53467 12.92857,5.49725 15.20598,7.37924 0.25778,0.21298 1.25703,0.98395 2.22049,1.71325 5.47316,4.14269 13.29074,12.54058 16.75201,17.99555 0.54652,0.86127 2.88773,5.29624 3.39989,6.4405 1.19903,2.67857 1.67933,4.0448 2.38449,6.78193 1.29191,5.0144 1.60831,7.98946 1.61679,15.2029 0.0223,19.24658 -5.92465,39.50052 -19.9648,67.99288 -16.47817,33.4401 -54.0842,90.16084 -80.44064,121.32783 -3.20171,3.7861 -3.92998,4.44795 -4.87132,4.42769 -0.73336,-0.0159 -3.55924,-1.6193 -8.37453,-4.75207 z m 149.79605,-49.6114 c -1.99867,-0.29289 -3.99725,-0.68917 -4.44143,-0.88061 -0.44417,-0.19143 -1.67059,-0.70687 -2.72542,-1.14546 -1.05483,-0.43857 -1.91783,-0.96699 -1.91783,-1.1743 0,-0.2073 -0.22709,-0.37691 -0.50458,-0.37691 -0.53803,0 -5.9556,-5.18674 -5.9556,-5.70182 0,-0.16814 -0.24163,-0.53237 -0.53688,-0.80939 -0.29516,-0.27701 -0.79482,-0.95649 -1.11034,-1.50996 -0.98024,-1.71992 -3.27318,-6.1433 -3.64829,-7.03827 -0.19647,-0.46883 -0.52911,-1.236 -0.73932,-1.70484 -1.794,-4.00246 -3.30353,-9.15268 -5.81418,-19.83729 -0.34816,-1.48178 -0.99979,-5.06194 -1.44797,-7.95592 -2.31864,-14.97005 -3.08598,-28.44329 -2.46408,-43.26222 0.44345,-10.56616 0.50967,-11.45528 1.47205,-19.77468 2.77362,-23.97613 9.32668,-43.98038 20.17939,-61.60165 1.27049,-2.06282 3.11186,-5.24057 4.09183,-7.06168 4.51237,-8.38513 12.67053,-16.6761 22.12292,-22.48314 6.11932,-3.75936 7.26053,-4.07302 14.93321,-4.10416 5.55417,-0.0223 6.96681,0.099 10.07219,0.86689 1.9866,0.49123 3.8944,1.02719 4.2395,1.19108 0.3451,0.16386 1.8994,0.7737 3.4538,1.35519 1.5545,0.58152 3.3715,1.36562 4.0377,1.74248 0.6662,0.3768 1.7109,0.87238 2.3216,1.10128 0.6108,0.22886 1.1104,0.55002 1.1104,0.71372 0,0.16366 0.3179,0.3978 0.7066,0.52021 0.8886,0.28001 1.8274,0.84396 4.1909,2.51774 1.0299,0.72931 2.268,1.58172 2.75155,1.89427 3.3087,2.13898 10.77227,9.06487 14.08517,13.07045 3.5926,4.34392 4.7581,5.93242 6.115,8.33477 0.2353,0.41675 0.9739,1.61013 1.641,2.65198 1.7987,2.80893 4.2448,7.8173 5.5508,11.3656 5.8784,15.9711 7.7863,38.35464 4.7144,55.31261 -2.7834,15.36535 -9.9881,33.09985 -19.4698,47.92497 -7.9529,12.43476 -19.39122,26.07842 -30.97532,36.94753 -12.55913,11.78401 -21.86529,17.23079 -31.90727,18.67486 -4.93307,0.7094 -10.29345,0.79915 -14.1317,0.23667 z m 35.96168,-35.42086 c 4.47589,-0.74499 4.87469,-0.97306 8.14519,-4.65774 6.9666,-7.84898 11.883,-16.77223 15.5909,-28.29741 3.5472,-11.02587 4.79445,-20.85103 3.9564,-31.16774 -1.6838,-20.72931 -6.5764,-34.11208 -17.2705,-47.24015 -2.788,-3.4226 -9.95498,-10.60789 -10.58073,-10.60789 -2.09602,-1.49962 -4.26395,-3.36006 -6.15529,-4.54625 -0.50154,-0.31256 -1.24525,-0.86663 -1.65274,-1.23127 -0.40749,-0.36465 -0.99121,-0.663 -1.29718,-0.663 -0.30586,0 -0.78233,-0.25572 -1.05885,-0.56828 -0.27642,-0.31255 -0.73772,-0.56828 -1.02512,-0.56828 -3.42809,-1.72189 -4.65093,-2.29888 -7.4539,-3.52554 -1.22132,-0.53395 -2.89896,-1.13799 -3.72806,-1.34234 l -1.50738,-0.37151 -1.22339,3.71984 c -5.77796,17.56881 -7.87236,32.78796 -7.84685,57.02159 0.0169,16.31791 0.6029,22.39201 3.63526,37.69592 0.92199,4.65304 3.3825,13.85566 4.20374,15.72242 0.18336,0.41675 0.92991,2.20682 1.65899,3.97797 3.46751,8.42341 8.12844,13.94359 13.31447,15.76905 3.37543,1.18812 6.72562,1.47468 10.29504,0.88061 z m 314.10071,23.97657 c -0.222,-0.15311 -0.8126,-0.82552 -1.3122,-1.49428 -0.8065,-1.0795 -0.908,-1.67457 -0.9054,-5.30394 0,-2.85296 0.2998,-5.42496 0.9846,-8.51326 1.8347,-8.27329 3.0123,-11.1797 12.3356,-30.44508 13.3634,-27.61327 20.6364,-44.42435 39.1825,-90.57012 22.0545,-54.87487 28.942,-75.174 34.565,-101.87165 2.3052,-10.94546 1.1584,-24.46595 -2.5601,-30.18707 -1.2566,-1.93313 -3.9234,-4.33504 -5.7007,-5.13423 -1.9916,-0.89565 -8.7726,-0.8816 -11.3173,0.0234 -2.2493,0.80004 -7.5838,4.71335 -12.707,9.32168 -4.3653,3.92655 -8.9798,8.91416 -18.0665,19.52705 -11.836,13.82391 -19.9144,22.39355 -25.5689,27.12388 -4.0092,3.35409 -5.4977,3.86085 -5.4977,1.87188 0,-1.4623 2.7131,-17.68793 3.1774,-19.00157 0.4569,-1.29325 15.614,-19.79073 23.7613,-28.99767 15.3303,-17.32456 37.2502,-35.53455 49.128,-40.81318 8.9741,-3.98817 20.2555,-4.68289 26.8181,-1.65147 4.7085,2.17507 8.8234,7.0266 10.5301,12.41522 0.2969,0.93767 0.6937,2.13105 0.8819,2.65198 1.7985,4.9828 2.5208,17.79747 1.4092,25.0043 -3.282,21.27852 -11.1596,46.47966 -28.008,89.59886 -18.3819,47.04395 -35.0335,86.29677 -47.3301,111.57235 -9.4257,19.37408 -10.8931,22.67977 -10.8931,24.53907 0,0.37037 0.896,0.0751 2.9272,-0.96487 11.7904,-6.0362 49.4141,-19.76218 82.4532,-30.08088 22.4903,-7.02413 40.015,-10.9155 49.1735,-10.91905 3.7863,0 3.9367,0.0303 3.9367,0.83123 0,0.7534 -3.7843,12.30675 -8.2239,25.1066 -1.9703,5.68107 -0.8651,4.9518 -9.7436,6.42914 -24.1268,4.01463 -43.0311,9.01137 -76.5528,20.23436 -32.8909,11.01179 -54.5504,19.54813 -61.5071,24.24099 -3.8651,2.60722 -6.9297,4.37726 -8.9505,5.16949 -1.5147,0.59385 -5.7027,0.78093 -6.4194,0.28679 z m -208.9474,-28.3135 c -0.2764,-0.31255 -0.7465,-0.56829 -1.0447,-0.56829 -1.7468,0 -1.9476,-5.12853 -1.0406,-26.57716 0.6427,-15.19866 0.1996,-29.9901 -1.372,-45.78384 -1.0094,-10.14698 -1.1756,-11.54215 -2.3901,-20.07924 -0.7626,-5.36036 -4.8689,-26.86897 -5.4607,-28.60344 -0.2134,-0.6251 -0.7343,-2.67092 -1.1576,-4.54625 -1.807,-8.00441 -6.1789,-22.2482 -8.593,-27.99655 -0.6792,-1.61766 -2.1013,-4.41686 -4.1712,-8.21107 -0.2192,-0.40182 -0.4916,-0.72517 -0.6057,-0.71858 -0.1138,0.007 -1.0236,1.15736 -2.0215,2.55726 -0.9981,1.39991 -3.7369,4.39217 -6.0864,6.64953 -5.922,5.68966 -5.6303,5.77589 -9.2689,-2.73976 -1.5491,-3.62528 -2.8165,-7.06915 -2.8165,-7.65298 0,-0.9051 0.8182,-1.68848 5.5518,-5.31562 3.0535,-2.33973 8.6404,-6.91344 12.4157,-10.16378 8.1673,-7.03189 10.9127,-9.24634 15.7467,-12.70132 5.2219,-3.73221 8.5929,-6.58888 9.9549,-8.43597 0.9822,-1.33198 1.4126,-1.61013 2.4913,-1.61013 0.7179,0 1.6049,0.298 1.973,0.66299 0.3681,0.36465 1.3175,1.25969 2.1099,1.98898 2.5731,2.23357 4.4209,5.17105 5.8483,8.14535 0.2913,0.62511 0.6924,1.43632 0.8917,1.80267 0.5419,0.9969 2.7737,6.31655 3.3761,8.04753 1.3854,3.98042 2.6253,7.75478 2.9931,9.11135 0.2233,0.8231 0.6697,2.43421 0.9921,3.58023 2.6927,9.56973 4.0945,15.16605 5.504,21.97351 2.043,9.86678 4.0961,21.68686 5.0341,28.98229 0.3482,2.7088 0.8125,6.28898 1.0318,7.95593 1.695,12.88909 2.5789,31.51618 2.318,48.85327 l -0.205,13.61993 0.8195,-1.49662 c 2.2267,-4.06685 7.6912,-15.79145 11.4687,-24.60665 8.676,-20.24665 11.5262,-29.99133 14.4384,-49.36382 2.7423,-18.24353 2.9831,-31.9173 0.7984,-45.34955 -0.8556,-5.26026 -2.7945,-14.42064 -4.0091,-18.94267 -0.5598,-2.0837 -1.2273,-6.00495 -1.4831,-8.7139 -0.4621,-4.89225 -0.4578,-4.94828 0.6502,-8.33479 1.8141,-5.54463 4.579,-9.62886 9.8915,-14.61162 3.9638,-3.7176 6.1451,-5.07678 10.333,-6.43834 4.6422,-1.50921 5.7093,-1.46015 8.1853,0.37623 3.5329,2.62023 5.7678,6.39547 7.305,12.33922 0.2156,0.83348 0.8431,3.13502 1.3943,5.11452 2.2139,7.95013 3.255,17.77199 3.2526,30.68714 0,21.17637 -4.3917,47.21988 -11.1386,66.10994 -10.011,28.02891 -25.2271,58.16537 -38.7708,76.78761 -10.7912,14.83788 -26.5375,29.0353 -37.5267,33.83548 -2.5646,1.12022 -6.7672,1.33069 -7.6072,0.38098 z m 144.1435,-46.66706 c -0.7774,-0.0965 -1.5859,-0.33369 -1.7968,-0.52722 -0.2109,-0.19351 -0.7951,-0.35183 -1.2981,-0.35183 -0.8636,0 -3.811,-0.78945 -5.5861,-1.49625 -0.4441,-0.17684 -1.4434,-0.53732 -2.2207,-0.80104 -0.7772,-0.26373 -1.7,-0.70713 -2.0505,-0.98537 -0.3506,-0.27822 -0.9469,-0.50588 -1.325,-0.50588 -0.3781,0 -0.792,-0.25572 -0.9198,-0.56827 -0.1279,-0.31256 -0.5821,-0.56829 -1.0094,-0.56829 -0.4274,0 -0.8816,-0.25572 -1.0094,-0.56828 -0.1279,-0.31255 -0.484,-0.56828 -0.7915,-0.56828 -0.3075,0 -0.7859,-0.34096 -1.0633,-0.75771 -0.2775,-0.41673 -0.6877,-0.7585 -0.9119,-0.75944 -1.0752,-0.004 -7.4735,-6.80179 -7.4735,-7.93945 0,-0.18174 -0.1621,-0.38727 -0.3603,-0.45674 -1.0029,-0.35147 -4.95,-8.1036 -6.912,-13.57557 -6.8318,-19.05289 -9.5379,-48.29746 -7.0289,-75.96012 3.1434,-34.65669 10.2843,-54.72153 26.8315,-75.39186 11.8667,-14.82353 25.7272,-25.56573 38.1421,-29.56062 5.3108,-1.70897 13.4976,-1.77816 16.8516,-0.14245 0.3856,0.18806 0.8871,0.34193 1.1144,0.34193 0.9492,0 7.2522,4.64924 7.2648,5.35859 0,0.13424 0.5693,0.81159 1.2597,1.5052 0.6907,0.69361 1.4196,1.60668 1.6202,2.02904 0.2006,0.42237 0.7376,1.34842 1.1938,2.05789 0.7992,1.24319 2.1942,4.47308 3.1249,7.23425 3.3179,9.8459 2.3589,30.10505 -2.2149,46.7884 -5.9262,21.61613 -16.7474,41.75754 -30.6262,57.00442 -4.5534,5.00227 -6.7915,6.91972 -7.9026,6.77038 -0.8795,-0.11824 -1.0107,-0.46443 -1.8176,-4.80277 -0.4783,-2.57143 -1.1039,-6.77105 -1.3902,-9.33245 l -0.5206,-4.65709 2.0625,-4.4957 c 6.7442,-14.70073 10.182,-28.87992 10.182,-41.9964 0,-8.76346 -0.8229,-12.96225 -3.6024,-18.38019 -1.38,-2.69014 -1.9374,-3.57793 -2.8578,-4.5531 -2.4495,-2.59508 -3.4891,-3.49182 -5.5405,-4.77966 -2.1614,-1.35695 -2.5434,-1.46457 -5.1981,-1.46457 -1.7134,0 -3.1121,0.19222 -3.4792,0.47818 -0.8819,0.68667 -3.7,7.5307 -5.1072,12.40284 -3.6847,12.75876 -5.6632,28.53858 -5.9928,47.79897 -0.3044,17.77599 0.5611,29.58621 2.966,40.47389 0.9469,4.2865 3.3913,11.83304 4.8276,14.90395 0.3566,0.7627 0.7932,1.72773 0.9702,2.14446 0.8065,1.89949 4.658,8.86517 5.6559,10.22905 4.0555,5.54315 13.6141,11.01191 22.1223,12.65677 11.1328,2.1523 28.6751,-3.3607 40.7862,-12.81782 4.9409,-3.85825 9.789,-8.5014 11.6295,-11.13792 5.2476,-7.5174 11.1539,-13.71744 14.6716,-15.40134 0.9152,-0.43811 2.3909,-0.76657 3.4444,-0.76657 1.629,0 1.8909,0.11829 2.2559,1.01915 0.5692,1.40464 -0.1153,5.26637 -1.6766,9.45755 -7.3587,19.75578 -38.1091,48.73057 -62.8186,59.19146 -5.0549,2.13999 -12.6759,4.61243 -17.0941,5.54573 -2.9856,0.63068 -16.073,1.08863 -19.3805,0.67815 z M 45.912445,745.78792 c 0,-0.39034 0.64279,-2.69937 1.42851,-5.13119 4.24004,-13.12375 7.20318,-28.45451 10.69693,-55.34394 0.47646,-3.66655 1.3582,-12.00201 2.2444,-21.2158 1.02433,-10.64957 1.22543,-44.09078 0.39768,-66.10993 -1.10658,-29.43416 -2.44382,-52.52312 -4.47622,-77.28612 -0.3164,-3.85483 -0.95285,-11.61186 -1.41443,-17.23784 -0.46147,-5.62596 -1.46019,-17.21888 -2.21924,-25.76202 -0.75904,-8.54315 -1.59457,-18.03064 -1.85661,-21.08329 l -0.47648,-5.55031 1.82566,-3.16332 c 1.00416,-1.73984 4.81485,-8.02213 8.46813,-13.96066 3.65339,-5.93852 8.14657,-13.31197 9.9849,-16.38541 2.75139,-4.60016 3.50205,-5.58809 4.2462,-5.58809 1.0253,0 2.2403,1.08276 2.2403,1.99644 0,0.33595 0.1756,0.71263 0.39018,0.83705 0.41429,0.2403 3.67712,9.70024 4.44544,12.88892 0.25101,1.04184 0.72515,2.99867 1.05359,4.3485 0.32846,1.34982 0.95937,4.41853 1.40202,6.81935 0.44274,2.40083 0.90003,4.76948 1.01638,5.26367 0.183,0.77742 0.58863,0.37689 3.00951,-2.97173 4.31072,-5.96255 8.45146,-10.57576 15.927665,-17.74498 13.79057,-13.22444 24.26291,-19.92597 34.48648,-22.06883 5.45032,-1.14239 12.44907,0.72711 15.18555,4.05634 0.44416,0.54035 1.13033,1.3077 1.52488,1.70523 2.60488,2.62474 5.028,8.97018 6.79799,17.80176 l 0.42784,2.13441 3.12481,-5.73352 c 12.49947,-22.93412 31.5024,-42.60938 47.5372,-49.21916 7.56168,-3.11701 14.62101,-2.9104 20.93611,0.61274 1.62134,0.90451 3.24445,1.93233 3.83576,2.4289 l 2.05176,1.72307 c 9.74719,8.18587 14.09323,26.69151 12.51902,53.3068 -1.23829,20.93501 -2.21996,28.6964 -9.12823,72.17159 -4.22362,26.57998 -7.65529,49.13402 -10.11641,66.48878 -0.33978,2.39625 -0.87925,6.1469 -1.19876,8.33479 -3.36465,23.03973 -7.45159,58.27633 -7.45159,64.24657 0,0.68483 -1.4252,1.34193 -10.19501,4.70055 -14.28151,5.4694 -20.28118,7.58127 -21.53794,7.58127 l -1.08285,0 0.27517,-3.31496 c 0.41438,-4.99048 2.51003,-22.4709 4.0765,-34.0021 2.04329,-15.04155 2.42365,-17.72713 5.07065,-35.80166 2.84123,-19.40014 4.5254,-30.3953 7.48575,-48.8721 8.00254,-49.94694 9.33433,-60.86492 9.72747,-79.74865 0.24216,-11.63025 -0.0375,-15.81431 -1.51552,-22.69499 -0.96381,-4.48643 -1.97449,-7.37116 -3.86189,-11.02297 -1.63464,-3.16271 -1.97574,-3.66758 -3.68238,-5.45053 -0.72068,-0.75287 -1.31119,-1.4967 -1.31225,-1.65298 0,-0.15627 -0.18364,-0.28413 -0.40572,-0.28413 -0.22209,0 -0.75415,-0.29835 -1.18234,-0.663 -15.55093,-13.42558 -20.30269,19.72331 -22.83431,27.91825 -4.474,14.66384 -5.50527,19.81436 -13.35489,66.70042 -2.70329,16.14682 -4.25682,24.88845 -8.85377,49.81922 -2.53573,13.75239 -4.98491,27.08238 -5.44255,29.62218 -0.45764,2.53983 -1.19465,9.70016 -1.63776,15.91184 -1.25862,17.64067 -1.91614,22.45466 -3.66711,26.84567 -4.18749,5.14483 -17.72405,7.44656 -26.46075,10.98383 -6.17546,2.52719 -6.60562,2.56777 -6.60562,0.62314 0,-1.75021 0.82232,-7.63802 2.20568,-15.79303 0.66492,-3.91916 1.31431,-10.48053 1.83744,-18.56383 1.15861,-17.90335 3.86262,-55.47067 4.22658,-58.72229 0.11661,-1.04185 0.66438,-8.45789 1.21732,-16.48011 0.55285,-8.02223 1.18831,-16.8874 1.4121,-19.70039 0.70382,-8.84598 1.25683,-27.95196 1.00888,-34.85452 -0.82999,-23.10412 -3.26525,-31.42498 -10.97281,-37.49213 -1.056,-0.83124 -3.58521,-0.87217 -5.21092,-0.0843 -3.72743,1.80637 -5.86931,4.94929 -9.98793,14.65583 -3.785785,16.00639 -13.672975,34.10603 -12.742255,46.0307 2.19898,27.86686 3.55292,53.7484 4.38986,83.91604 1.03484,37.30192 -0.12991,58.61856 -5.08207,93.00854 -2.97945,20.69051 -8.32841,44.35105 -10.83942,47.94685 -2.00243,2.86756 -30.58872,24.03531 -32.45882,24.03531 -0.58462,0 -0.87344,-0.2347 -0.87344,-0.7097 z M 305.33013,595.19118 c -2.26394,-0.80804 -5.8546,-3.46168 -5.8546,-4.32679 0,-0.19891 -0.28391,-0.58273 -0.63082,-0.85293 -1.19957,-0.93405 -5.21645,-9.45212 -6.2099,-13.16829 -0.20558,-0.76886 -0.73817,-2.69964 -1.1836,-4.29069 -1.90337,-6.7992 -3.12212,-15.16238 -4.27109,-29.30975 -2.78726,-34.31924 1.20679,-82.82115 8.66337,-105.20426 l 1.20446,-3.6155 4.21979,-3.81371 c 2.32096,-2.09755 8.48857,-7.31929 13.70573,-11.60388 5.21716,-4.2846 9.59854,-7.96132 9.73631,-8.1705 0.40383,-0.61313 2.51163,-0.44737 2.78413,0.21897 0.41365,1.01158 0.26858,4.3381 -0.35404,8.11436 -2.6255,15.92457 -4.72599,32.22308 -5.93224,46.0307 -0.7072,8.09538 -0.71908,41.04737 -0.0178,49.06152 1.14959,13.13449 3.17254,24.6933 5.5299,31.59694 1.09196,3.19785 3.72548,9.16464 4.4292,10.03519 1.30298,1.61203 3.83585,3.8303 4.37344,3.8303 0.97989,0 5.60932,-7.07175 9.92047,-15.15414 7.44666,-13.96069 13.04947,-28.99953 17.61947,-47.29385 4.17644,-16.71887 5.6989,-25.31514 6.04974,-34.15965 0.14463,-3.64648 0.70418,-12.68212 1.24346,-20.07924 0.53928,-7.39712 1.00067,-15.6656 1.02529,-18.37439 0.0251,-2.70881 0.17016,-5.35131 0.32328,-5.87224 0.15319,-0.52091 1.16325,-1.54382 2.24458,-2.27311 12.93107,-8.72094 21.71997,-15.52021 26.65517,-20.62087 4.00725,-4.14159 4.83029,-4.28678 5.20547,-0.91822 0.40545,3.63933 0.29633,22.74276 -0.15873,27.79017 -0.53412,5.92453 -1.48704,13.83599 -2.22424,18.46661 -1.41968,8.91726 -0.26696,38.32269 2.23906,57.11467 3.26551,24.48728 7.73405,42.01082 14.20156,55.69145 2.89397,6.12161 5.42765,10.26591 7.75913,12.6916 0.93554,0.97333 1.45662,1.89196 1.45689,2.56809 2.7e-4,0.93007 -0.29364,1.17139 -2.52324,2.07199 -1.38791,0.56065 -10.33635,4.64678 -19.88528,9.08028 -9.54903,4.43353 -17.83638,8.06159 -18.41636,8.06234 -0.95722,0 -1.21276,-0.35715 -2.76824,-3.88188 -2.35237,-5.33055 -3.62358,-8.8512 -6.46339,-17.90082 -1.38337,-4.40831 -5.44514,-23.80227 -6.14924,-29.36116 -0.0948,-0.74843 -0.74503,0.0861 -3.09954,3.97797 -17.11196,28.28553 -40.56968,51.51566 -54.50973,53.98086 -2.80171,0.49547 -8.38007,0.41795 -9.93805,-0.13814 z m 220.89046,-4.87591 c -0.1135,-0.67721 -0.4042,-3.36232 -0.646,-5.96695 -0.2419,-2.60461 -0.6936,-6.4405 -1.004,-8.5242 -0.3104,-2.08368 -0.7531,-5.23764 -0.9838,-7.00879 -1.0186,-7.82102 -1.7401,-13.04497 -2.4593,-17.8061 -2.0259,-13.41376 -2.9314,-19.21731 -3.8466,-24.65679 -1.2182,-7.23966 -2.5844,-17.15333 -2.5931,-18.81666 0,-0.67719 -0.088,-1.23127 -0.1873,-1.23127 -0.099,0 -1.8709,0.99422 -3.9367,2.20936 -9.03759,5.31622 -13.60465,7.69866 -14.52385,7.5765 -0.89467,-0.11892 -0.96472,-0.34995 -1.41665,-4.67134 -0.26144,-2.50043 -0.60532,-7.0189 -0.76414,-10.04105 l -0.28883,-5.49479 4.19624,-3.0748 c 4.59811,-3.36935 10.23785,-6.87809 21.12163,-13.14072 7.6767,-4.41722 14.1001,-8.97376 16.4296,-11.65454 2.09905,-2.41544 5.68702,-7.69061 7.32562,-10.77015 7.9869,-15.01071 7.5488,-34.54687 -1.1485,-51.21288 -3.01717,-5.78164 -7.20052,-10.89489 -11.91332,-14.56168 -0.9065,-0.70539 -1.8592,-1.45309 -2.117,-1.66157 -0.2577,-0.2085 -1.7409,-1.14616 -3.2959,-2.0837 -4.1627,-2.50968 -4.3585,-2.62029 -5.3502,-3.0226 -0.5004,-0.20297 -1.749,-0.72777 -2.7748,-1.1662 -5.47,-2.33815 -10.09899,-3.00348 -14.58511,-2.0963 -4.68307,0.94704 -5.56488,1.41766 -6.54272,3.49169 -5.36288,11.37582 -9.5632,30.75692 -10.90831,50.33328 -0.83275,12.11904 -0.39624,33.10674 0.99685,47.93143 0.32701,3.47987 0.56382,9.94604 0.5342,14.58586 -0.0688,10.68292 0.99006,21.85091 3.56299,37.59648 l 0.6957,4.2574 -1.87072,2.56197 c -4.07355,5.57868 -9.67341,10.47012 -15.25417,13.32429 -2.6387,1.34946 -3.33511,1.54044 -5.63519,1.54509 -2.48201,0.004 -2.68073,-0.0616 -3.66105,-1.22595 -1.07402,-1.27579 -2.00778,-2.81764 -2.69598,-4.45152 -0.21941,-0.52092 -0.58657,-1.37334 -0.81598,-1.89426 -0.50939,-1.15699 -1.06366,-2.72811 -1.67049,-4.73567 -0.43819,-1.44965 -0.68705,-2.50102 -2.42144,-10.22904 -3.46849,-15.45535 -6.0872,-41.34979 -6.09461,-60.26558 -0.009,-20.23667 3.51143,-44.0809 8.93015,-60.50341 4.40252,-13.34264 12.30068,-27.32723 21.80036,-38.60026 3.80158,-4.51123 13.75756,-13.98109 17.96583,-17.08858 11.3946,-8.41401 22.89389,-12.77698 33.66899,-12.7744 3.96655,8.8e-4 9.19052,0.88792 11.40082,1.93568 0.3857,0.18279 0.9246,0.33235 1.1978,0.33235 1.337,0 10.6256,4.73282 13.7074,6.98425 0.5888,0.43023 1.6709,1.20846 2.4045,1.72938 1.5474,1.09875 6.4168,5.48605 6.4168,5.78145 0,0.11001 0.5395,0.742 1.199,1.40435 3.4905,3.50606 8.4117,12.41226 10.6833,19.33395 2.7529,8.38862 4.1343,22.10154 3.0912,30.68713 -1.5686,12.91104 -5.6384,24.22798 -13.2353,36.80441 -5.9218,9.80341 -14.3712,20.99776 -22.1173,29.30277 -3.8259,4.10179 -3.8804,4.18751 -3.6167,5.68278 0.1472,0.835 0.4022,1.77392 0.5667,2.08647 0.1645,0.31255 0.5188,1.67643 0.7875,3.03082 0.2686,1.35441 0.8316,3.82643 1.2511,5.49339 1.4817,5.88866 4.4452,23.93757 5.4429,33.14968 1.4074,12.99357 1.4875,14.68924 1.2944,27.41071 -0.2037,13.42593 -0.3572,14.8906 -2.5021,23.87149 -0.697,2.91869 -0.7447,2.99193 -2.3767,3.65249 -10.01607,4.054 -19.41532,7.57612 -20.21772,7.57612 -0.8096,0 -1.0319,-0.2281 -1.2,-1.23127 z m 105.00722,-65.73108 c -1.4836,-4.11529 -2.6949,-8.02845 -2.6915,-8.69589 0.011,-1.03215 0.4379,-1.56231 2.8955,-3.54697 3.3308,-2.68983 5.8214,-4.24111 9.8997,-6.16585 4.0737,-1.92255 17.2127,-7.04745 22.7421,-8.87052 12.2671,-4.04465 22.0278,-8.2202 29.4745,-12.60915 6.1948,-3.65105 15.5847,-9.94817 20.312,-13.62175 3.44,-2.67314 4.0725,-3.37242 6.1198,-6.7651 4.771,-7.90656 8.959,-17.82262 10.5011,-24.86356 1.8099,-8.26284 0.8515,-19.18468 -2.4938,-28.42254 -3.2258,-8.90731 -10.2285,-18.71802 -19.7017,-27.60169 -2.7431,-2.57235 -7.0464,-5.91934 -8.2771,-6.43778 -0.3332,-0.14032 -1.1508,-0.58829 -1.8171,-0.99548 -0.666,-0.4072 -1.9379,-1.09028 -2.8263,-1.51794 -0.8881,-0.42766 -1.8875,-0.93509 -2.2206,-1.12763 -0.3332,-0.19255 -1.3778,-0.64855 -2.3217,-1.01336 -0.9438,-0.36481 -1.7158,-0.80095 -1.7158,-0.96921 0,-0.16827 -0.2751,-0.30595 -0.6113,-0.30595 -0.336,0 -0.9265,-0.1506 -1.3122,-0.33465 -0.9684,-0.46224 -2.1709,-0.91523 -6.1519,-2.31733 -1.8875,-0.66481 -3.7954,-1.34578 -4.2395,-1.51328 -0.4441,-0.16748 -1.4434,-0.50941 -2.2207,-0.75984 -0.7772,-0.25042 -1.7765,-0.5914 -2.2208,-0.7577 -1.4152,-0.52993 -3.1624,-1.05829 -5.6526,-1.70923 -1.3324,-0.3483 -3.2401,-0.86136 -4.2395,-1.14012 -2.6102,-0.72818 -8.9154,-1.79257 -9.175,-1.54889 -0.1212,0.11361 -0.022,0.68085 0.2195,1.26055 0.4023,0.9639 3.005,10.78075 4.9502,18.67068 0.4367,1.77114 0.9731,3.8415 1.1917,4.60082 1.2745,4.42333 4.5925,20.27416 6.6104,31.57968 2.7397,15.34899 3.6007,21.88256 4.3051,32.6727 0.534,8.18092 0.3273,19.60676 -0.3772,20.84187 -0.2445,0.42851 -1.6029,1.387 -3.0188,2.12996 -3.6848,1.9336 -10.4065,6.13798 -15.8048,9.88593 -4.6704,3.24258 -6.6667,4.01098 -6.6667,2.56613 0,-1.54895 -1.2984,-10.89227 -2.2473,-16.17157 -3.9768,-22.12543 -14.5083,-65.58876 -24.033,-99.18295 -1.7569,-6.19678 -3.1943,-11.79743 -3.1943,-12.44589 0,-1.32089 3.3878,-7.50894 6.1357,-11.20725 4.0374,-5.43375 10.1018,-10.78068 14.3069,-12.61427 1.0814,-0.47152 3.3289,-1.50249 4.9944,-2.29103 16.8889,-7.99609 39.6428,-7.96715 64.804,0.0824 2.6648,0.85252 5.572,1.84585 6.4601,2.2074 0.8883,0.36153 2.251,0.86521 3.0283,1.11928 1.7658,0.57718 2.288,0.78456 6.1662,2.44867 1.7259,0.74055 3.2935,1.34646 3.4835,1.34646 0.19,0 0.5716,0.25572 0.8481,0.56828 0.2764,0.31257 0.7399,0.56829 1.0299,0.56829 0.29,0 1.6386,0.63931 2.9969,1.4207 1.3582,0.78139 2.786,1.59118 3.1729,1.79956 0.7166,0.38599 1.5316,0.99339 2.9233,2.1784 0.4283,0.36464 0.8948,0.66299 1.0368,0.66299 0.2653,0 7.0498,6.40217 9.2546,8.73325 1.8918,1.99996 7.0416,8.20943 7.0416,8.49043 0,0.13698 0.6507,1.04861 1.4459,2.02587 1.564,1.92161 6.145,10.48223 7.2048,13.46332 2.6319,7.40365 3.4841,12.33239 3.7446,21.6526 0.2381,8.52349 -0.2398,13.34302 -1.953,19.7004 -4.6086,17.10157 -16.5486,39.26037 -29.1631,54.12306 -10.9969,12.95683 -26.0842,25.28541 -46.8908,38.31714 -10.34,6.47631 -18.2982,10.53063 -26.6483,13.57599 -11.2756,4.11237 -19.9388,6.31196 -24.8653,6.31335 l -1.8507,3.7e-4 -2.6977,-7.48235 z m 173.1182,-29.74404 c -3.8947,-3.83524 -6.2543,-12.96649 -7.8551,-30.39895 -0.5954,-6.48257 -0.5908,-29.13558 0.011,-40.33805 -0.6031,-7.51287 0.8057,-14.7467 1.3953,-21.6045 2.0528,-31.92177 11.0542,-74.02427 19.4157,-90.81367 8.5246,-17.11664 26.8978,-36.83272 40.1661,-43.10181 7.8845,-3.72526 18.6521,-5.75974 28.6356,-5.41045 5.6808,0.19874 7.0948,0.60496 10.215,2.93469 2.3216,1.73338 5.9077,5.84955 6.6047,7.58106 0.1258,0.31256 0.412,0.88642 0.6359,1.27526 1.5803,2.74555 3.6875,11.57126 4.3665,18.2901 0.5828,5.76607 0.5128,25.42264 -0.1793,50.33312 -0.3242,11.66868 -0.7796,31.01862 -1.012,42.99986 -1.1997,61.85627 -2.1491,72.1396 -7.6339,82.68124 -4.0374,7.7599 -11.4056,15.26213 -18.0973,18.4265 -3.3648,1.59116 -7.7459,0.78258 -8.559,-1.57965 -1.146,-3.32932 -1.6798,-8.12898 -1.4627,-13.1495 0.7539,-17.42549 2.452,-87.05732 2.1304,-87.35901 -0.065,-0.0608 -1.0678,0.5689 -2.2286,1.39954 -4.6098,3.2983 -30.0887,16.25043 -31.9673,16.25043 -0.8119,0 -0.8285,-0.17735 -0.8262,-8.80834 0,-4.84459 0.119,-10.21328 0.2614,-11.93043 l 0.2591,-3.12207 8.5204,-4.13292 c 4.6863,-2.27311 9.7015,-4.76254 11.1449,-5.53208 2.8261,-1.50665 13.5033,-6.39447 14.8345,-6.79089 0.7575,-0.22558 0.8264,-0.67651 1.0639,-6.95555 1.5527,-41.03995 1.4281,-44.24674 -1.971,-50.72863 -2.3205,-4.4246 -6.8667,-8.07806 -10.0522,-8.07806 -1.4475,0 -11.0611,1.60394 -13.8512,2.31092 -1.6651,0.42193 -1.7188,0.4875 -2.7146,3.32185 -4.021,11.44547 -8.947,33.91669 -11.347,51.76353 -0.3643,2.70881 -1.1776,6.91277 -1.8074,9.34214 -2.2803,8.79658 -3.219,19.71754 -3.2187,37.44626 3e-4,17.42634 0.9914,41.52321 2.0099,48.8721 1.4431,10.41154 2.1189,14.89617 2.5402,16.85898 0.8964,4.17462 0.5895,6.32296 -1.4555,10.18652 -1.005,1.89871 -2.7763,4.6456 -3.9365,6.10419 -2.9865,3.75477 -9.4727,9.59616 -12.515,11.27088 -2.4959,1.37399 -2.7072,1.42058 -6.4257,1.41668 -3.8074,-0.003 -3.8572,-0.0161 -5.0913,-1.23129 z"
     id="path4162"
     inkscape:connector-curvature="0"
     sodipodi:nodetypes="scssssssssssscscccsccsssscscsssssscccscscsccsscscssscsssssssssssscsscsssscssscssssscccsssssscscsccscscsccssssssssssscccssccccscscssscscssssssssssscssssssssssscssssscccsssscsssccssssssssccccsccsscscsssscscssscscssccssssssssssscsscsssscsccsssssscccsssscscsssscsssssscssssssssssssscssssscsssssssssscsssssssssssscsssssssscsccssssccsssssssssccssssscsssssscsscssscsssssssccsscsssscssscsssssccccccsscssssscssssscsscsscsssscssscsccsssssccsssssssssccssssssscccsssssssssssssssscssssssccsssscssssssssssssssssccsssssssssssccccssccsssscsssssscscsscscsssscssscsssssssss" />
  <path
     inkscape:connector-curvature="0"
     id="path4166"
     d="m 392.67558,335.146 c -0.75571,-2.45474 -1.41899,-9.62538 -1.47397,-15.93472 -0.0766,-8.80454 5.83804,-15.60902 -2.93668,-10.34931 -4.2584,2.55255 -8.85469,-7.04225 -3.21762,-15.60626 2.81437,-4.27567 -0.33624,-11.62251 -0.95358,-11.62251 -0.61738,0 5.42836,6.7257 0.66754,9.57022 -4.76085,2.84455 -14.15154,6.79786 -20.86822,8.78513 -25.08998,7.42351 -68.01895,0.30635 -71.08596,-11.78523 -0.60096,-2.36925 -1.91622,-4.30773 -2.92281,-4.30773 -1.00658,0 -1.83015,-0.96119 -1.83015,-2.13597 0,-1.17478 3.03,-2.14133 6.73332,-2.14786 17.878,-0.0315 29.91382,-8.59981 35.65788,-25.38448 4.26074,-12.4503 4.28887,-12.3582 -4.42173,-14.48203 -9.85027,-2.40168 -11.13157,-6.6405 -2.96764,-9.81751 l 6.41008,-2.49446 -11.87293,-4.34228 c -13.08316,-4.7849 -16.66323,-10.54525 -8.49097,-13.66201 l 4.78131,-1.82349 -5.14546,-1.6094 c -13.60916,-4.25663 -36.10396,-16.92588 -35.42654,-19.02105 0.41985,-1.29854 0.87892,-3.34858 5.05202,-4.5557 l 7.58743,-2.19478 -10.2515,-3.75378 c -11.96895,-4.38267 -24.93746,-16.08985 -24.93746,-22.51203 0,-8.57444 14.99457,-12.16111 37.24176,-8.90816 19.40938,2.83801 39.03578,11.4286 61.18841,26.7825 9.73596,6.74796 17.99843,11.89443 18.36105,11.43664 0.3626,-0.45783 4.45642,-6.67107 9.09738,-13.80722 10.05234,-15.45692 20.86082,-25.67736 33.018,-31.22162 10.70057,-4.87999 28.52086,-7.43467 30.36792,-4.35349 0.71606,1.1945 -0.14544,6.35922 -1.91438,11.47712 -3.84362,11.12009 -7.42334,60.14269 -7.29531,99.9053 0.10334,32.11093 -3.23125,52.96685 -11.13021,69.61186 -8.62274,18.17014 -24.09383,29.77265 -27.02098,20.26431 z"
     style="fill:#ffffff;fill-opacity:1"
     sodipodi:nodetypes="scsssssssssssscsscssscsssscsssssss" />
  <g
     style="fill:#fc7138;fill-opacity:1"
     transform="matrix(2.0717892,0,0,2.1359633,230.41465,94.45874)"
     id="g4224">
    <path
       inkscape:connector-curvature="0"
       id="path4228"
       d="M 42.343746,97.958584 C 35.932153,96.690096 30.350165,93.408288 28.584645,89.869221 27.71309,88.122148 27,86.536861 27,86.346362 27,86.155863 29.294492,86 32.098871,86 c 6.636389,0 11.32458,-2.848651 13.756194,-6.806999 l 2.075925,-3.379333 1.728357,2.970129 c 1.550904,2.66518 2.587753,2.54298 4.319621,1.46141 3.321917,-2.074571 5.980321,-1.48018 7.817542,1.74792 C 64.093126,86.028409 65.5,85.234998 65.5,79.904532 65.5,75.537448 65.529757,75.5 69,75.5 c 3.465994,0 3.502961,0.04615 3.804791,4.75 0.167635,2.6125 0.552675,4.75 0.855644,4.75 0.302969,0 1.88784,-1.125 3.521934,-2.5 3.252024,-2.736397 7.299302,-3.293127 8.133655,-1.118838 0.971986,2.532955 -4.003964,8.173861 -10.055568,11.399332 -10.532352,5.613686 -21.775403,7.382316 -32.91671,5.17809 z M 81.380002,77.547887 C 80.676287,75.714034 81.700488,74 83.5,74 c 1.838916,0 2.647066,1.453177 1.896256,3.409758 -0.763279,1.989073 -3.272859,2.075384 -4.016254,0.138129 z M 74,72.573324 C 74,70.63784 74.512971,70 76.069551,70 c 1.571851,0 1.992703,0.538639 1.75,2.239784 C 77.34535,75.563532 74,75.855663 74,72.573324 Z"
       style="fill:#fc7138;fill-opacity:1"
       sodipodi:nodetypes="ssssscsssssssssssssssssss" />
    <path
       inkscape:connector-curvature="0"
       id="path4226"
       d="M 39.223583,96.5839 C 33.701601,94.790983 30,92.340145 30,90.476947 30,89.664626 29.55,89 29,89 c -0.55,0 -1,-0.391875 -1,-0.870834 0,-0.478958 2.690792,-1.175262 5.979537,-1.547341 6.352877,-0.718746 11.307564,-3.76032 12.561543,-7.711255 0.643843,-2.028572 0.663064,-2.027415 3.014299,0.181456 2.123124,1.994572 2.678767,2.093628 5.406376,0.963815 3.489553,-1.44542 5.584577,-0.339277 7.148573,3.774344 1.470624,3.868033 3.396876,2.033459 3.325109,-3.166852 -0.05749,-4.165739 0.206076,-4.746238 2.405591,-5.298282 3.335524,-0.837163 5.476088,2.063318 4.684081,6.346968 -0.817093,4.419333 0.611948,4.795212 4.993271,1.313375 4.168442,-3.312661 6.253149,-3.744354 7.12391,-1.475189 1.089965,2.840404 -4.396773,8.259202 -12.335454,12.182711 -7.236268,3.576358 -8.252965,3.801245 -18.235191,4.033506 C 47.140362,97.887696 42.027409,97.494266 39.223583,96.5839 Z M 82.63948,78.306147 C 81.444324,77.110991 81.99377,75 83.5,75 c 0.825,0 1.5,0.648442 1.5,1.440983 0,1.670644 -1.427277,2.798406 -2.36052,1.865164 z m -8.235518,-4.695823 c -0.90952,-2.37017 1.163336,-4.443026 2.803181,-2.803181 0.942857,0.942857 0.841434,1.572851 -0.463256,2.877541 -1.560531,1.560532 -1.714435,1.555641 -2.339925,-0.07436 z"
       style="fill:#fc7138;fill-opacity:1" />
  </g>
</svg>
